<?xml version="1.0" standalone="no"?>
<!DOCTYPE svg PUBLIC "-//W3C//DTD SVG 20010904//EN"
 "http://www.w3.org/TR/2001/REC-SVG-20010904/DTD/svg10.dtd">
<svg version="1.0" xmlns="http://www.w3.org/2000/svg"
 width="500.000000pt" height="500.000000pt" viewBox="0 0 500.000000 500.000000"
 preserveAspectRatio="xMidYMid meet">

<g transform="translate(0.000000,500.000000) scale(0.100000,-0.100000)"
fill="#000000" stroke="none">
<path d="M2105 4895 c-343 -46 -647 -152 -941 -331 -397 -241 -714 -587 -914
-999 -118 -241 -186 -460 -226 -720 -25 -165 -26 -522 -1 -685 80 -525 310
-985 680 -1358 382 -388 865 -624 1420 -697 153 -20 431 -20 584 0 560 74
1059 322 1438 716 367 382 581 821 659 1350 21 139 21 514 1 654 -78 548 -319
1024 -711 1405 -383 372 -859 601 -1383 666 -142 17 -468 17 -606 -1z m-221
-1177 c5 -9 7 -21 2 -25 -4 -4 -12 0 -17 10 -19 32 -29 17 -29 -43 0 -47 3
-60 15 -60 8 0 15 9 15 20 0 11 5 20 10 20 14 0 13 -33 -2 -48 -17 -17 -45
-15 -52 4 -11 28 -6 120 6 132 16 16 38 12 52 -10z m800 0 c5 -9 7 -21 2 -25
-4 -4 -12 0 -17 10 -19 32 -29 17 -29 -43 0 -49 3 -60 16 -60 13 0 15 7 11 35
-4 26 -2 35 9 35 18 0 19 -61 2 -78 -17 -17 -45 -15 -52 4 -11 28 -6 120 6
132 16 16 38 12 52 -10z m-976 5 c-15 -4 -18 -16 -18 -74 0 -39 -4 -69 -10
-69 -6 0 -10 30 -10 69 0 46 -4 71 -12 74 -7 3 5 5 27 5 22 0 32 -2 23 -5z
m44 -55 c2 -38 8 -63 16 -66 9 -3 12 14 12 62 0 37 4 66 10 66 6 0 10 -30 10
-70 0 -75 -14 -95 -49 -73 -18 12 -29 143 -12 143 6 0 11 -28 13 -62z m178 -3
c0 -51 3 -65 15 -65 12 0 15 14 15 65 0 37 4 65 10 65 15 0 12 -113 -3 -134
-7 -10 -22 -17 -33 -14 -16 3 -19 13 -22 76 -2 45 1 72 8 72 6 0 10 -27 10
-65z m106 15 c8 -58 15 -57 23 3 4 29 11 43 24 45 15 3 17 -6 17 -72 0 -86
-19 -107 -21 -23 l-2 52 -10 -52 c-10 -56 -23 -68 -31 -30 -3 12 -7 31 -9 42
-3 11 -5 1 -6 -22 -2 -76 -21 -47 -21 32 0 59 3 75 15 75 10 0 16 -16 21 -50z
m139 28 c15 -71 21 -128 13 -128 -5 0 -11 7 -14 15 -8 20 -30 19 -44 -2 -9
-14 -10 -5 -5 37 9 79 15 100 31 100 7 0 16 -10 19 -22z m77 -20 l12 -43 7 45
c5 39 6 34 7 -32 1 -43 -2 -78 -7 -78 -5 0 -16 26 -24 58 l-15 57 -1 -57 c-1
-32 -5 -58 -11 -58 -6 0 -10 32 -10 75 0 59 3 75 15 75 8 0 19 -18 27 -42z
m241 20 c15 -60 19 -128 8 -128 -6 0 -11 7 -11 15 0 8 -9 15 -20 15 -11 0 -20
-7 -20 -15 0 -8 -5 -15 -11 -15 -6 0 -8 8 -5 18 3 9 8 40 12 67 3 28 8 53 11
58 9 15 31 6 36 -15z m104 -55 c2 -72 -13 -103 -19 -41 -4 46 -28 49 -28 4 0
-20 -4 -36 -10 -36 -6 0 -10 32 -10 76 l0 75 33 -3 32 -3 2 -72z m156 70 c-27
-5 -34 -53 -8 -53 8 0 15 -4 15 -10 0 -5 -7 -10 -15 -10 -9 0 -15 -9 -15 -25
0 -18 5 -25 20 -25 11 0 20 -4 20 -10 0 -5 -13 -10 -30 -10 l-30 0 0 75 0 75
33 -1 c23 -1 26 -3 10 -6z m79 -35 l12 -43 7 45 c5 39 6 34 7 -32 1 -43 -2
-78 -7 -78 -5 0 -16 26 -24 58 l-15 57 -1 -57 c-1 -32 -5 -58 -11 -58 -6 0
-10 32 -10 75 0 59 3 75 15 75 8 0 19 -18 27 -42z m105 30 c-11 -9 -17 -32
-20 -78 l-3 -65 -2 67 c-2 52 -6 69 -19 77 -15 8 -10 10 21 11 34 0 37 -2 23
-12z m53 -63 c0 -43 -4 -75 -10 -75 -6 0 -10 32 -10 75 0 43 4 75 10 75 6 0
10 -32 10 -75z m55 43 c12 -53 20 -56 26 -8 5 37 6 32 7 -32 1 -43 -2 -78 -7
-78 -5 0 -15 24 -24 53 l-15 52 -1 -52 c-1 -29 -5 -53 -11 -53 -6 0 -10 32
-10 75 0 58 3 75 14 75 8 0 17 -14 21 -32z m119 -10 c4 -24 9 -58 12 -75 4
-21 2 -33 -5 -33 -6 0 -11 7 -11 15 0 8 -9 15 -20 15 -11 0 -20 -7 -20 -15 0
-8 -5 -15 -11 -15 -7 0 -9 9 -6 23 3 12 9 46 13 75 5 40 11 52 24 52 13 0 19
-11 24 -42z m-784 -28 c0 -5 -9 -10 -20 -10 -11 0 -20 5 -20 10 0 6 9 10 20
10 11 0 20 -4 20 -10z m-200 -534 c0 -39 -418 -1210 -437 -1223 -11 -8 -51
-13 -110 -13 -87 0 -93 1 -93 21 0 17 131 396 365 1054 31 88 62 166 67 173 7
8 42 12 109 12 97 0 99 0 99 -24z m1058 -106 c2 -109 0 -126 -15 -137 -12 -10
-85 -13 -285 -13 l-268 0 -5 -22 c-3 -13 -5 -61 -3 -108 l3 -85 175 -3 c150
-2 177 -5 188 -19 14 -19 17 -220 3 -241 -6 -11 -54 -16 -187 -20 l-179 -7 -3
-224 c-1 -145 -6 -229 -13 -238 -15 -18 -349 -19 -367 -1 -9 9 -12 159 -12
614 0 331 3 610 6 618 6 15 55 16 483 14 l476 -3 3 -125z m-1810 -102 c8 -8
12 -49 12 -118 0 -92 -3 -109 -19 -124 -20 -18 -134 -66 -338 -141 -72 -27
-130 -52 -128 -55 2 -4 101 -42 220 -85 119 -43 227 -87 241 -97 24 -19 25
-23 22 -136 l-3 -117 -40 1 c-61 2 -773 277 -803 311 -22 25 -23 33 -20 134 2
84 7 112 20 125 18 19 772 313 804 313 11 1 25 -4 32 -11z m2408 -138 c214
-83 395 -158 402 -167 17 -23 17 -233 0 -256 -7 -9 -35 -26 -63 -37 -58 -25
-709 -274 -741 -284 -42 -13 -54 15 -54 130 0 98 2 106 24 127 13 12 80 42
148 66 67 24 170 62 226 84 l104 40 -233 88 c-153 57 -240 95 -251 109 -14 18
-18 41 -18 117 0 105 9 133 44 133 13 0 199 -68 412 -150z m-2008 -1342 c7 -7
12 -41 12 -84 0 -82 -13 -104 -61 -104 l-29 0 0 100 0 100 33 0 c18 0 38 -5
45 -12z m122 3 c0 -5 -12 -11 -27 -13 -22 -2 -29 -9 -31 -31 -3 -22 1 -30 17
-34 27 -7 27 -23 1 -23 -15 0 -20 -7 -20 -29 0 -25 5 -30 27 -33 48 -6 39 -28
-11 -28 l-46 0 0 100 0 100 45 0 c25 0 45 -4 45 -9z m98 -18 c4 -27 -6 -30
-23 -6 -12 17 -35 11 -35 -10 0 -7 14 -28 30 -47 16 -19 30 -46 30 -60 0 -60
-67 -69 -84 -12 -5 16 -3 22 7 22 8 0 17 -10 21 -22 5 -22 6 -22 23 -6 16 17
15 20 -15 57 -30 38 -42 88 -25 105 4 4 21 6 38 4 22 -2 31 -9 33 -25z m113
-73 c11 -75 12 -100 3 -100 -6 0 -14 9 -17 20 -3 12 -14 20 -26 20 -14 0 -21
-6 -21 -20 0 -12 -7 -20 -16 -20 -12 0 -15 6 -11 23 3 12 11 57 18 100 10 69
14 77 34 77 20 0 23 -8 36 -100z m106 92 c7 -4 11 -37 11 -89 0 -45 3 -87 7
-93 3 -5 -1 -10 -9 -10 -10 0 -16 12 -18 37 -2 27 -8 39 -20 41 -15 3 -18 -4
-18 -37 0 -30 -4 -41 -15 -41 -12 0 -15 18 -15 100 l0 100 33 0 c17 0 37 -4
44 -8z m121 -4 c13 -16 15 -188 2 -188 -6 0 -10 11 -10 24 0 35 -10 56 -26 56
-10 0 -14 -12 -14 -40 0 -29 -4 -40 -15 -40 -12 0 -15 18 -15 100 l0 100 34 0
c18 0 38 -6 44 -12z m123 -15 c14 -37 5 -153 -12 -164 -18 -11 -40 -11 -59 1
-19 12 -27 139 -11 169 18 33 68 29 82 -6z m59 -58 c0 -84 0 -85 25 -85 16 0
25 -6 25 -15 0 -11 -11 -15 -40 -15 l-40 0 0 100 c0 82 3 100 15 100 12 0 15
-16 15 -85z m100 0 c0 -84 0 -85 25 -85 16 0 25 -6 25 -15 0 -11 -11 -15 -40
-15 l-40 0 0 100 c0 82 3 100 15 100 12 0 15 -16 15 -85z m151 58 c14 -37 5
-153 -12 -164 -18 -11 -40 -11 -59 1 -19 12 -27 139 -11 169 18 33 68 29 82
-6z m100 -10 c0 -21 4 -56 8 -78 7 -38 8 -36 15 38 6 52 12 77 21 77 9 0 16
-25 21 -77 6 -62 9 -72 15 -48 4 17 7 51 8 78 1 36 5 47 17 47 12 0 15 -6 11
-22 -3 -13 -9 -58 -12 -100 -6 -65 -10 -78 -25 -78 -19 0 -29 25 -31 75 -1 21
-4 15 -11 -22 -7 -41 -14 -53 -28 -53 -14 0 -19 11 -24 58 -4 31 -9 76 -13
100 -4 34 -2 42 11 42 12 0 16 -10 17 -37z m219 27 c0 -5 -11 -10 -25 -10 -22
0 -25 -4 -25 -35 0 -28 4 -35 20 -35 11 0 20 -4 20 -10 0 -5 -9 -10 -20 -10
-16 0 -20 -7 -20 -30 0 -25 4 -30 25 -30 16 0 25 -6 25 -15 0 -11 -11 -15 -40
-15 l-40 0 0 100 0 100 40 0 c22 0 40 -4 40 -10z m98 1 c8 -4 13 -26 12 -52
-1 -24 2 -58 5 -75 9 -40 -14 -64 -61 -64 l-34 0 0 100 0 100 33 0 c17 0 38
-4 45 -9z"/>
<path d="M2151 3690 c-1 -8 -4 -25 -7 -37 -5 -17 -2 -23 10 -23 17 0 19 11 6
50 -4 14 -9 18 -9 10z"/>
<path d="M2466 3684 c-10 -27 -7 -54 7 -54 9 0 12 11 9 35 -5 39 -7 42 -16 19z"/>
<path d="M2550 3690 c0 -21 4 -30 13 -27 6 2 12 14 12 27 0 13 -6 25 -12 28
-9 2 -13 -7 -13 -28z"/>
<path d="M3130 3666 c0 -20 5 -36 10 -36 6 0 10 13 10 29 0 17 -4 33 -10 36
-6 4 -10 -8 -10 -29z"/>
<path d="M1777 1424 c-4 -4 -7 -38 -7 -76 0 -62 2 -68 20 -68 19 0 21 5 18 72
-3 65 -13 89 -31 72z"/>
<path d="M2116 1395 c-12 -33 -7 -85 10 -85 13 0 14 8 8 48 -8 55 -9 58 -18
37z"/>
<path d="M2227 1423 c-4 -3 -7 -19 -7 -35 0 -23 4 -29 18 -26 21 4 28 41 9 56
-8 7 -17 9 -20 5z"/>
<path d="M2340 1396 c0 -26 4 -36 16 -36 11 0 14 8 12 32 -4 46 -28 49 -28 4z"/>
<path d="M2457 1424 c-10 -10 -9 -142 1 -148 22 -14 33 14 30 79 -3 63 -13 86
-31 69z"/>
<path d="M2767 1424 c-10 -10 -9 -142 1 -148 22 -14 33 14 30 79 -3 63 -13 86
-31 69z"/>
<path d="M3197 1424 c-4 -4 -7 -18 -7 -31 0 -26 27 -32 37 -7 6 17 -19 49 -30
38z"/>
<path d="M3190 1310 c0 -23 4 -30 20 -30 16 0 20 7 20 30 0 23 -4 30 -20 30
-16 0 -20 -7 -20 -30z"/>
</g>
</svg>
